<?xml version="1.0" standalone="no"?>
<!DOCTYPE svg PUBLIC "-//W3C//DTD SVG 20010904//EN"
 "http://www.w3.org/TR/2001/REC-SVG-20010904/DTD/svg10.dtd">
<svg version="1.0" xmlns="http://www.w3.org/2000/svg"
 width="512.000000pt" height="512.000000pt" viewBox="0 0 512.000000 512.000000"
 preserveAspectRatio="xMidYMid meet">
<metadata>
Created by potrace 1.11, written by Peter Selinger 2001-2013
</metadata>
<g transform="translate(0.000000,512.000000) scale(0.100000,-0.100000)"
fill="#000000" stroke="none">
<path d="M2341 5110 c-621 -60 -1151 -309 -1587 -744 -400 -401 -639 -874
-725 -1438 -32 -204 -32 -532 0 -736 86 -564 325 -1037 725 -1438 401 -400
873 -638 1438 -725 187 -29 548 -32 731 -5 765 110 1435 558 1837 1227 351
584 449 1281 275 1955 -115 443 -336 826 -669 1160 -400 399 -880 642 -1433
724 -159 24 -451 33 -592 20z m344 -1554 c42 -8 59 -17 58 -27 -6 -44 -205
-1034 -208 -1038 -6 -5 -155 20 -159 28 -3 5 117 620 195 999 12 59 13 60 114
38z m-502 -134 l57 -57 -165 -165 -165 -165 167 -167 168 -168 -63 -62 -62
-63 -227 228 -228 227 225 225 c124 124 227 225 230 225 3 0 31 -26 63 -58z
m1047 -167 l225 -225 -227 -227 -228 -228 -60 60 -60 60 167 167 168 168 -168
168 -167 167 57 58 c32 31 60 57 63 57 3 0 106 -101 230 -225z m413 -1085
l377 0 0 -255 0 -255 -515 0 -516 0 3 -127 3 -128 128 -3 127 -3 0 -78 0 -78
-517 -6 c-285 -4 -596 -7 -690 -7 l-173 0 0 85 0 85 125 0 125 0 0 130 0 130
-510 0 -510 0 0 254 0 255 28 5 c15 2 502 3 1082 0 580 -2 1225 -4 1433 -4z"/>
</g>
</svg>
